<?xml version="1.0" encoding="UTF-8" standalone="no"?>
<!DOCTYPE svg PUBLIC "-//W3C//DTD SVG 1.1//EN"
 "http://www.w3.org/Graphics/SVG/1.1/DTD/svg11.dtd">
<!-- Generated by graphviz version 2.43.0 (0)
 -->
<!-- Title: dut Pages: 1 -->
<svg width="642pt" height="288pt"
 viewBox="0.00 0.00 641.91 288.00" xmlns="http://www.w3.org/2000/svg" xmlns:xlink="http://www.w3.org/1999/xlink">
<g id="graph0" class="graph" transform="scale(1 1) rotate(0) translate(4 284)">
<title>dut</title>
<polygon fill="white" stroke="transparent" points="-4,4 -4,-284 637.91,-284 637.91,4 -4,4"/>
<text text-anchor="middle" x="316.95" y="-7.8" font-family="Times,serif" font-size="14.00">dut</text>
<!-- n1 -->
<g id="node1" class="node">
<title>n1</title>
<polygon fill="none" stroke="black" points="309.92,-169.5 252.11,-151.5 309.92,-133.5 367.73,-151.5 309.92,-169.5"/>
<text text-anchor="middle" x="309.92" y="-147.8" font-family="Times,serif" font-size="14.00">data_a</text>
</g>
<!-- n2 -->
<g id="node2" class="node">
<title>n2</title>
<polygon fill="none" stroke="black" points="309.92,-114.5 275.9,-96.5 309.92,-78.5 343.94,-96.5 309.92,-114.5"/>
<text text-anchor="middle" x="309.92" y="-92.8" font-family="Times,serif" font-size="14.00">sel</text>
</g>
<!-- n3 -->
<g id="node3" class="node">
<title>n3</title>
<polygon fill="none" stroke="black" points="84.63,-144.04 84.63,-158.96 59.78,-169.5 24.64,-169.5 -0.21,-158.96 -0.21,-144.04 24.64,-133.5 59.78,-133.5 84.63,-144.04"/>
<text text-anchor="middle" x="42.21" y="-147.8" font-family="Times,serif" font-size="14.00">trit_in</text>
</g>
<!-- x0 -->
<g id="node6" class="node">
<title>x0</title>
<path fill="none" stroke="black" d="M132.42,-243.5C132.42,-243.5 183.42,-243.5 183.42,-243.5 189.42,-243.5 195.42,-249.5 195.42,-255.5 195.42,-255.5 195.42,-267.5 195.42,-267.5 195.42,-273.5 189.42,-279.5 183.42,-279.5 183.42,-279.5 132.42,-279.5 132.42,-279.5 126.42,-279.5 120.42,-273.5 120.42,-267.5 120.42,-267.5 120.42,-255.5 120.42,-255.5 120.42,-249.5 126.42,-243.5 132.42,-243.5"/>
<text text-anchor="middle" x="157.92" y="-257.8" font-family="Times,serif" font-size="14.00">0:0 &#45; 0:0</text>
</g>
<!-- n3&#45;&gt;x0 -->
<g id="edge7" class="edge">
<title>n3:e&#45;&gt;x0:w</title>
<path fill="none" stroke="black" d="M84.42,-151.5C131.84,-151.5 78.71,-244.98 110.42,-259.59"/>
<polygon fill="black" stroke="black" points="109.94,-263.06 120.42,-261.5 111.25,-256.19 109.94,-263.06"/>
</g>
<!-- x1 -->
<g id="node7" class="node">
<title>x1</title>
<path fill="none" stroke="black" d="M132.42,-188.5C132.42,-188.5 183.42,-188.5 183.42,-188.5 189.42,-188.5 195.42,-194.5 195.42,-200.5 195.42,-200.5 195.42,-212.5 195.42,-212.5 195.42,-218.5 189.42,-224.5 183.42,-224.5 183.42,-224.5 132.42,-224.5 132.42,-224.5 126.42,-224.5 120.42,-218.5 120.42,-212.5 120.42,-212.5 120.42,-200.5 120.42,-200.5 120.42,-194.5 126.42,-188.5 132.42,-188.5"/>
<text text-anchor="middle" x="157.92" y="-202.8" font-family="Times,serif" font-size="14.00">1:1 &#45; 0:0</text>
</g>
<!-- n3&#45;&gt;x1 -->
<g id="edge8" class="edge">
<title>n3:e&#45;&gt;x1:w</title>
<path fill="none" stroke="black" d="M84.42,-151.5C109.3,-151.5 96.72,-191.38 110.49,-203.22"/>
<polygon fill="black" stroke="black" points="109.83,-206.69 120.42,-206.5 112.02,-200.04 109.83,-206.69"/>
</g>
<!-- x3 -->
<g id="node9" class="node">
<title>x3</title>
<path fill="none" stroke="black" d="M132.42,-133.5C132.42,-133.5 183.42,-133.5 183.42,-133.5 189.42,-133.5 195.42,-139.5 195.42,-145.5 195.42,-145.5 195.42,-157.5 195.42,-157.5 195.42,-163.5 189.42,-169.5 183.42,-169.5 183.42,-169.5 132.42,-169.5 132.42,-169.5 126.42,-169.5 120.42,-163.5 120.42,-157.5 120.42,-157.5 120.42,-145.5 120.42,-145.5 120.42,-139.5 126.42,-133.5 132.42,-133.5"/>
<text text-anchor="middle" x="157.92" y="-147.8" font-family="Times,serif" font-size="14.00">0:0 &#45; 0:0</text>
</g>
<!-- n3&#45;&gt;x3 -->
<g id="edge9" class="edge">
<title>n3:e&#45;&gt;x3:w</title>
<path fill="none" stroke="black" d="M84.42,-151.5C96.42,-151.5 101.67,-151.5 110.29,-151.5"/>
<polygon fill="black" stroke="black" points="110.42,-155 120.42,-151.5 110.42,-148 110.42,-155"/>
</g>
<!-- x4 -->
<g id="node10" class="node">
<title>x4</title>
<path fill="none" stroke="black" d="M132.42,-78.5C132.42,-78.5 183.42,-78.5 183.42,-78.5 189.42,-78.5 195.42,-84.5 195.42,-90.5 195.42,-90.5 195.42,-102.5 195.42,-102.5 195.42,-108.5 189.42,-114.5 183.42,-114.5 183.42,-114.5 132.42,-114.5 132.42,-114.5 126.42,-114.5 120.42,-108.5 120.42,-102.5 120.42,-102.5 120.42,-90.5 120.42,-90.5 120.42,-84.5 126.42,-78.5 132.42,-78.5"/>
<text text-anchor="middle" x="157.92" y="-92.8" font-family="Times,serif" font-size="14.00">1:1 &#45; 0:0</text>
</g>
<!-- n3&#45;&gt;x4 -->
<g id="edge10" class="edge">
<title>n3:e&#45;&gt;x4:w</title>
<path fill="none" stroke="black" d="M84.42,-151.5C109.3,-151.5 96.72,-111.62 110.49,-99.78"/>
<polygon fill="black" stroke="black" points="112.02,-102.96 120.42,-96.5 109.83,-96.31 112.02,-102.96"/>
</g>
<!-- x5 -->
<g id="node11" class="node">
<title>x5</title>
<path fill="none" stroke="black" d="M132.42,-23.5C132.42,-23.5 183.42,-23.5 183.42,-23.5 189.42,-23.5 195.42,-29.5 195.42,-35.5 195.42,-35.5 195.42,-47.5 195.42,-47.5 195.42,-53.5 189.42,-59.5 183.42,-59.5 183.42,-59.5 132.42,-59.5 132.42,-59.5 126.42,-59.5 120.42,-53.5 120.42,-47.5 120.42,-47.5 120.42,-35.5 120.42,-35.5 120.42,-29.5 126.42,-23.5 132.42,-23.5"/>
<text text-anchor="middle" x="157.92" y="-37.8" font-family="Times,serif" font-size="14.00">1:1 &#45; 0:0</text>
</g>
<!-- n3&#45;&gt;x5 -->
<g id="edge11" class="edge">
<title>n3:e&#45;&gt;x5:w</title>
<path fill="none" stroke="black" d="M84.42,-151.5C131.84,-151.5 78.71,-58.02 110.42,-43.41"/>
<polygon fill="black" stroke="black" points="111.25,-46.81 120.42,-41.5 109.94,-39.94 111.25,-46.81"/>
</g>
<!-- n4 -->
<g id="node4" class="node">
<title>n4</title>
<polygon fill="none" stroke="black" points="634.15,-122.04 634.15,-136.96 605.16,-147.5 564.16,-147.5 535.17,-136.96 535.17,-122.04 564.16,-111.5 605.16,-111.5 634.15,-122.04"/>
<text text-anchor="middle" x="584.66" y="-125.8" font-family="Times,serif" font-size="14.00">trit_out</text>
</g>
<!-- c8 -->
<g id="node5" class="node">
<title>c8</title>
<polygon fill="none" stroke="black" points="231.42,-195.5 231.42,-241.5 388.42,-241.5 388.42,-195.5 231.42,-195.5"/>
<text text-anchor="middle" x="244.92" y="-226.3" font-family="Times,serif" font-size="14.00">A</text>
<polyline fill="none" stroke="black" points="231.42,-218.5 258.42,-218.5 "/>
<text text-anchor="middle" x="244.92" y="-203.3" font-family="Times,serif" font-size="14.00">B</text>
<polyline fill="none" stroke="black" points="258.42,-195.5 258.42,-241.5 "/>
<text text-anchor="middle" x="310.42" y="-222.3" font-family="Times,serif" font-size="14.00">$92</text>
<text text-anchor="middle" x="310.42" y="-207.3" font-family="Times,serif" font-size="14.00">$_ANDNOT_</text>
<polyline fill="none" stroke="black" points="362.42,-195.5 362.42,-241.5 "/>
<text text-anchor="middle" x="375.42" y="-214.8" font-family="Times,serif" font-size="14.00">Y</text>
</g>
<!-- x2 -->
<g id="node8" class="node">
<title>x2</title>
<path fill="none" stroke="black" d="M436.42,-167.5C436.42,-167.5 487.42,-167.5 487.42,-167.5 493.42,-167.5 499.42,-173.5 499.42,-179.5 499.42,-179.5 499.42,-191.5 499.42,-191.5 499.42,-197.5 493.42,-203.5 487.42,-203.5 487.42,-203.5 436.42,-203.5 436.42,-203.5 430.42,-203.5 424.42,-197.5 424.42,-191.5 424.42,-191.5 424.42,-179.5 424.42,-179.5 424.42,-173.5 430.42,-167.5 436.42,-167.5"/>
<text text-anchor="middle" x="461.92" y="-181.8" font-family="Times,serif" font-size="14.00">0:0 &#45; 0:0</text>
</g>
<!-- c8&#45;&gt;x2 -->
<g id="edge3" class="edge">
<title>c8:e&#45;&gt;x2:w</title>
<path fill="none" stroke="black" d="M399.63,-213.91C405.56,-207.68 407.2,-196.59 413.04,-190.26"/>
<polygon fill="none" stroke="black" points="399.53,-213.96 395.49,-219.93 388.42,-218.5 392.46,-212.53 399.53,-213.96"/>
<polygon fill="none" stroke="black" points="413.35,-190.13 417.34,-184.13 424.42,-185.5 420.43,-191.51 413.35,-190.13"/>
</g>
<!-- x0&#45;&gt;c8 -->
<g id="edge1" class="edge">
<title>x0:e&#45;&gt;c8:w</title>
<path fill="none" stroke="black" d="M206.73,-256.93C212.37,-251.13 214.35,-241.19 219.9,-235.3"/>
<polygon fill="none" stroke="black" points="206.54,-257 202.48,-262.96 195.42,-261.5 199.48,-255.54 206.54,-257"/>
<polygon fill="none" stroke="black" points="220.34,-235.11 224.34,-229.11 231.42,-230.5 227.42,-236.5 220.34,-235.11"/>
</g>
<!-- x1&#45;&gt;c8 -->
<g id="edge2" class="edge">
<title>x1:e&#45;&gt;c8:w</title>
<path fill="none" stroke="black" d="M207.64,-206.5C211.71,-206.5 215.15,-206.5 219.23,-206.5"/>
<polygon fill="none" stroke="black" points="207.42,-206.5 201.42,-210.5 195.42,-206.5 201.42,-202.5 207.42,-206.5"/>
<polygon fill="none" stroke="black" points="219.42,-206.5 225.42,-202.5 231.42,-206.5 225.42,-210.5 219.42,-206.5"/>
</g>
<!-- x2&#45;&gt;n4 -->
<g id="edge12" class="edge">
<title>x2:e&#45;&gt;n4:w</title>
<path fill="none" stroke="black" d="M499.42,-185.5C524.85,-185.5 511.31,-144.14 525.77,-132.51"/>
<polygon fill="black" stroke="black" points="526.92,-135.82 535.42,-129.5 524.83,-129.14 526.92,-135.82"/>
</g>
<!-- x3&#45;&gt;n1 -->
<g id="edge5" class="edge">
<title>x3:e&#45;&gt;n1:w</title>
<path fill="none" stroke="black" d="M195.42,-151.5C216.23,-151.5 223.87,-151.5 240.57,-151.5"/>
<polygon fill="black" stroke="black" points="240.92,-155 250.92,-151.5 240.92,-148 240.92,-155"/>
</g>
<!-- x4&#45;&gt;n2 -->
<g id="edge6" class="edge">
<title>x4:e&#45;&gt;n2:w</title>
<path fill="none" stroke="black" d="M195.42,-96.5C227.16,-96.5 237.52,-96.5 264.92,-96.5"/>
<polygon fill="black" stroke="black" points="264.92,-100 274.92,-96.5 264.92,-93 264.92,-100"/>
</g>
<!-- x6 -->
<g id="node12" class="node">
<title>x6</title>
<path fill="none" stroke="black" d="M436.42,-84.5C436.42,-84.5 487.42,-84.5 487.42,-84.5 493.42,-84.5 499.42,-90.5 499.42,-96.5 499.42,-96.5 499.42,-108.5 499.42,-108.5 499.42,-114.5 493.42,-120.5 487.42,-120.5 487.42,-120.5 436.42,-120.5 436.42,-120.5 430.42,-120.5 424.42,-114.5 424.42,-108.5 424.42,-108.5 424.42,-96.5 424.42,-96.5 424.42,-90.5 430.42,-84.5 436.42,-84.5"/>
<text text-anchor="middle" x="461.92" y="-98.8" font-family="Times,serif" font-size="14.00">0:0 &#45; 1:1</text>
</g>
<!-- x5&#45;&gt;x6 -->
<g id="edge4" class="edge">
<title>x5:e&#45;&gt;x6:w</title>
<path fill="none" stroke="black" d="M207.71,-41.44C284.95,-40.72 313.93,-34.16 388.42,-69.5 403.28,-76.55 403.83,-91.87 412.67,-98.87"/>
<polygon fill="none" stroke="black" points="207.42,-41.44 201.44,-45.47 195.42,-41.5 201.4,-37.47 207.42,-41.44"/>
<polygon fill="none" stroke="black" points="412.95,-98.96 419.87,-96.91 424.42,-102.5 417.51,-104.55 412.95,-98.96"/>
</g>
<!-- x6&#45;&gt;n4 -->
<g id="edge13" class="edge">
<title>x6:e&#45;&gt;n4:w</title>
<path fill="none" stroke="black" d="M499.42,-102.5C515.36,-102.5 516.05,-119.65 525.8,-126.61"/>
<polygon fill="black" stroke="black" points="524.83,-129.98 535.42,-129.5 526.85,-123.27 524.83,-129.98"/>
</g>
</g>
</svg>
