<?xml version="1.0" encoding="UTF-8" standalone="no"?>
<!DOCTYPE svg PUBLIC "-//W3C//DTD SVG 1.1//EN"
 "http://www.w3.org/Graphics/SVG/1.1/DTD/svg11.dtd">
<!-- Generated by graphviz version 2.43.0 (0)
 -->
<!-- Title: dut Pages: 1 -->
<svg width="832pt" height="343pt"
 viewBox="0.00 0.00 831.51 343.00" xmlns="http://www.w3.org/2000/svg" xmlns:xlink="http://www.w3.org/1999/xlink">
<g id="graph0" class="graph" transform="scale(1 1) rotate(0) translate(4 339)">
<title>dut</title>
<polygon fill="white" stroke="transparent" points="-4,4 -4,-339 827.51,-339 827.51,4 -4,4"/>
<text text-anchor="middle" x="411.75" y="-7.8" font-family="Times,serif" font-size="14.00">dut</text>
<!-- n4 -->
<g id="node1" class="node">
<title>n4</title>
<polygon fill="none" stroke="black" points="84.63,-171.04 84.63,-185.96 59.78,-196.5 24.64,-196.5 -0.21,-185.96 -0.21,-171.04 24.64,-160.5 59.78,-160.5 84.63,-171.04"/>
<text text-anchor="middle" x="42.21" y="-174.8" font-family="Times,serif" font-size="14.00">trit_in</text>
</g>
<!-- x0 -->
<g id="node4" class="node">
<title>x0</title>
<path fill="none" stroke="black" d="M132.42,-188.5C132.42,-188.5 183.42,-188.5 183.42,-188.5 189.42,-188.5 195.42,-194.5 195.42,-200.5 195.42,-200.5 195.42,-212.5 195.42,-212.5 195.42,-218.5 189.42,-224.5 183.42,-224.5 183.42,-224.5 132.42,-224.5 132.42,-224.5 126.42,-224.5 120.42,-218.5 120.42,-212.5 120.42,-212.5 120.42,-200.5 120.42,-200.5 120.42,-194.5 126.42,-188.5 132.42,-188.5"/>
<text text-anchor="middle" x="157.92" y="-202.8" font-family="Times,serif" font-size="14.00">0:0 &#45; 0:0</text>
</g>
<!-- n4&#45;&gt;x0 -->
<g id="edge14" class="edge">
<title>n4:e&#45;&gt;x0:w</title>
<path fill="none" stroke="black" d="M84.42,-178.5C100.57,-178.5 100.97,-196.28 110.72,-203.5"/>
<polygon fill="black" stroke="black" points="109.83,-206.89 120.42,-206.5 111.9,-200.2 109.83,-206.89"/>
</g>
<!-- x1 -->
<g id="node5" class="node">
<title>x1</title>
<path fill="none" stroke="black" d="M132.42,-133.5C132.42,-133.5 183.42,-133.5 183.42,-133.5 189.42,-133.5 195.42,-139.5 195.42,-145.5 195.42,-145.5 195.42,-157.5 195.42,-157.5 195.42,-163.5 189.42,-169.5 183.42,-169.5 183.42,-169.5 132.42,-169.5 132.42,-169.5 126.42,-169.5 120.42,-163.5 120.42,-157.5 120.42,-157.5 120.42,-145.5 120.42,-145.5 120.42,-139.5 126.42,-133.5 132.42,-133.5"/>
<text text-anchor="middle" x="157.92" y="-147.8" font-family="Times,serif" font-size="14.00">1:1 &#45; 0:0</text>
</g>
<!-- n4&#45;&gt;x1 -->
<g id="edge15" class="edge">
<title>n4:e&#45;&gt;x1:w</title>
<path fill="none" stroke="black" d="M84.42,-178.5C100.36,-178.5 101.05,-161.35 110.8,-154.39"/>
<polygon fill="black" stroke="black" points="111.85,-157.73 120.42,-151.5 109.83,-151.02 111.85,-157.73"/>
</g>
<!-- x2 -->
<g id="node7" class="node">
<title>x2</title>
<path fill="none" stroke="black" d="M132.42,-298.5C132.42,-298.5 183.42,-298.5 183.42,-298.5 189.42,-298.5 195.42,-304.5 195.42,-310.5 195.42,-310.5 195.42,-322.5 195.42,-322.5 195.42,-328.5 189.42,-334.5 183.42,-334.5 183.42,-334.5 132.42,-334.5 132.42,-334.5 126.42,-334.5 120.42,-328.5 120.42,-322.5 120.42,-322.5 120.42,-310.5 120.42,-310.5 120.42,-304.5 126.42,-298.5 132.42,-298.5"/>
<text text-anchor="middle" x="157.92" y="-312.8" font-family="Times,serif" font-size="14.00">0:0 &#45; 0:0</text>
</g>
<!-- n4&#45;&gt;x2 -->
<g id="edge16" class="edge">
<title>n4:e&#45;&gt;x2:w</title>
<path fill="none" stroke="black" d="M84.42,-178.5C143.84,-178.5 67.78,-299.79 110.27,-314.95"/>
<polygon fill="black" stroke="black" points="110.01,-318.45 120.42,-316.5 111.06,-311.53 110.01,-318.45"/>
</g>
<!-- x3 -->
<g id="node8" class="node">
<title>x3</title>
<path fill="none" stroke="black" d="M132.42,-243.5C132.42,-243.5 183.42,-243.5 183.42,-243.5 189.42,-243.5 195.42,-249.5 195.42,-255.5 195.42,-255.5 195.42,-267.5 195.42,-267.5 195.42,-273.5 189.42,-279.5 183.42,-279.5 183.42,-279.5 132.42,-279.5 132.42,-279.5 126.42,-279.5 120.42,-273.5 120.42,-267.5 120.42,-267.5 120.42,-255.5 120.42,-255.5 120.42,-249.5 126.42,-243.5 132.42,-243.5"/>
<text text-anchor="middle" x="157.92" y="-257.8" font-family="Times,serif" font-size="14.00">1:1 &#45; 0:0</text>
</g>
<!-- n4&#45;&gt;x3 -->
<g id="edge17" class="edge">
<title>n4:e&#45;&gt;x3:w</title>
<path fill="none" stroke="black" d="M84.42,-178.5C120.54,-178.5 88.36,-245.5 110.61,-259.11"/>
<polygon fill="black" stroke="black" points="109.87,-262.53 120.42,-261.5 111.53,-255.73 109.87,-262.53"/>
</g>
<!-- x5 -->
<g id="node12" class="node">
<title>x5</title>
<path fill="none" stroke="black" d="M132.42,-78.5C132.42,-78.5 183.42,-78.5 183.42,-78.5 189.42,-78.5 195.42,-84.5 195.42,-90.5 195.42,-90.5 195.42,-102.5 195.42,-102.5 195.42,-108.5 189.42,-114.5 183.42,-114.5 183.42,-114.5 132.42,-114.5 132.42,-114.5 126.42,-114.5 120.42,-108.5 120.42,-102.5 120.42,-102.5 120.42,-90.5 120.42,-90.5 120.42,-84.5 126.42,-78.5 132.42,-78.5"/>
<text text-anchor="middle" x="157.92" y="-92.8" font-family="Times,serif" font-size="14.00">1:1 &#45; 0:0</text>
</g>
<!-- n4&#45;&gt;x5 -->
<g id="edge18" class="edge">
<title>n4:e&#45;&gt;x5:w</title>
<path fill="none" stroke="black" d="M84.42,-178.5C120.18,-178.5 88.61,-112.31 110.7,-98.87"/>
<polygon fill="black" stroke="black" points="111.53,-102.27 120.42,-96.5 109.88,-95.46 111.53,-102.27"/>
</g>
<!-- x6 -->
<g id="node13" class="node">
<title>x6</title>
<path fill="none" stroke="black" d="M132.42,-23.5C132.42,-23.5 183.42,-23.5 183.42,-23.5 189.42,-23.5 195.42,-29.5 195.42,-35.5 195.42,-35.5 195.42,-47.5 195.42,-47.5 195.42,-53.5 189.42,-59.5 183.42,-59.5 183.42,-59.5 132.42,-59.5 132.42,-59.5 126.42,-59.5 120.42,-53.5 120.42,-47.5 120.42,-47.5 120.42,-35.5 120.42,-35.5 120.42,-29.5 126.42,-23.5 132.42,-23.5"/>
<text text-anchor="middle" x="157.92" y="-37.8" font-family="Times,serif" font-size="14.00">0:0 &#45; 0:0</text>
</g>
<!-- n4&#45;&gt;x6 -->
<g id="edge19" class="edge">
<title>n4:e&#45;&gt;x6:w</title>
<path fill="none" stroke="black" d="M84.42,-178.5C143.44,-178.5 68.1,-58.09 110.33,-43.04"/>
<polygon fill="black" stroke="black" points="111.06,-46.47 120.42,-41.5 110.01,-39.55 111.06,-46.47"/>
</g>
<!-- n5 -->
<g id="node2" class="node">
<title>n5</title>
<polygon fill="none" stroke="black" points="823.75,-153.04 823.75,-167.96 794.76,-178.5 753.76,-178.5 724.77,-167.96 724.77,-153.04 753.76,-142.5 794.76,-142.5 823.75,-153.04"/>
<text text-anchor="middle" x="774.26" y="-156.8" font-family="Times,serif" font-size="14.00">trit_out</text>
</g>
<!-- c9 -->
<g id="node3" class="node">
<title>c9</title>
<polygon fill="none" stroke="black" points="231.42,-155.5 231.42,-201.5 388.42,-201.5 388.42,-155.5 231.42,-155.5"/>
<text text-anchor="middle" x="244.92" y="-186.3" font-family="Times,serif" font-size="14.00">A</text>
<polyline fill="none" stroke="black" points="231.42,-178.5 258.42,-178.5 "/>
<text text-anchor="middle" x="244.92" y="-163.3" font-family="Times,serif" font-size="14.00">B</text>
<polyline fill="none" stroke="black" points="258.42,-155.5 258.42,-201.5 "/>
<text text-anchor="middle" x="310.42" y="-182.3" font-family="Times,serif" font-size="14.00">$139</text>
<text text-anchor="middle" x="310.42" y="-167.3" font-family="Times,serif" font-size="14.00">$_ANDNOT_</text>
<polyline fill="none" stroke="black" points="362.42,-155.5 362.42,-201.5 "/>
<text text-anchor="middle" x="375.42" y="-174.8" font-family="Times,serif" font-size="14.00">Y</text>
</g>
<!-- c11 -->
<g id="node9" class="node">
<title>c11</title>
<polygon fill="none" stroke="black" points="464.02,-170.5 464.02,-216.5 578.02,-216.5 578.02,-170.5 464.02,-170.5"/>
<text text-anchor="middle" x="477.52" y="-201.3" font-family="Times,serif" font-size="14.00">A</text>
<polyline fill="none" stroke="black" points="464.02,-193.5 491.02,-193.5 "/>
<text text-anchor="middle" x="477.52" y="-178.3" font-family="Times,serif" font-size="14.00">B</text>
<polyline fill="none" stroke="black" points="491.02,-170.5 491.02,-216.5 "/>
<text text-anchor="middle" x="521.52" y="-197.3" font-family="Times,serif" font-size="14.00">$141</text>
<text text-anchor="middle" x="521.52" y="-182.3" font-family="Times,serif" font-size="14.00">$_OR_</text>
<polyline fill="none" stroke="black" points="552.02,-170.5 552.02,-216.5 "/>
<text text-anchor="middle" x="565.02" y="-189.8" font-family="Times,serif" font-size="14.00">Y</text>
</g>
<!-- c9&#45;&gt;c11 -->
<g id="edge9" class="edge">
<title>c9:e&#45;&gt;c11:w</title>
<path fill="none" stroke="black" d="M388.42,-178.5C418.37,-178.5 428.26,-180.88 453.83,-181.4"/>
<polygon fill="black" stroke="black" points="453.99,-184.9 464.02,-181.5 454.05,-177.9 453.99,-184.9"/>
</g>
<!-- x0&#45;&gt;c9 -->
<g id="edge1" class="edge">
<title>x0:e&#45;&gt;c9:w</title>
<path fill="none" stroke="black" d="M207.26,-203.26C211.78,-200.49 215.06,-196.51 219.59,-193.73"/>
<polygon fill="none" stroke="black" points="206.99,-203.33 202.26,-208.78 195.42,-206.5 200.15,-201.06 206.99,-203.33"/>
<polygon fill="none" stroke="black" points="219.84,-193.66 224.58,-188.22 231.42,-190.5 226.69,-195.94 219.84,-193.66"/>
</g>
<!-- x1&#45;&gt;c9 -->
<g id="edge2" class="edge">
<title>x1:e&#45;&gt;c9:w</title>
<path fill="none" stroke="black" d="M207.21,-154.54C211.75,-157.14 215.09,-160.87 219.63,-163.47"/>
<polygon fill="none" stroke="black" points="207.04,-154.49 200.23,-156.87 195.42,-151.5 202.23,-149.12 207.04,-154.49"/>
<polygon fill="none" stroke="black" points="219.8,-163.51 226.6,-161.13 231.42,-166.5 224.61,-168.88 219.8,-163.51"/>
</g>
<!-- c10 -->
<g id="node6" class="node">
<title>c10</title>
<polygon fill="none" stroke="black" points="247.42,-250.5 247.42,-296.5 372.42,-296.5 372.42,-250.5 247.42,-250.5"/>
<text text-anchor="middle" x="260.92" y="-281.3" font-family="Times,serif" font-size="14.00">A</text>
<polyline fill="none" stroke="black" points="247.42,-273.5 274.42,-273.5 "/>
<text text-anchor="middle" x="260.92" y="-258.3" font-family="Times,serif" font-size="14.00">B</text>
<polyline fill="none" stroke="black" points="274.42,-250.5 274.42,-296.5 "/>
<text text-anchor="middle" x="310.42" y="-277.3" font-family="Times,serif" font-size="14.00">$140</text>
<text text-anchor="middle" x="310.42" y="-262.3" font-family="Times,serif" font-size="14.00">$_AND_</text>
<polyline fill="none" stroke="black" points="346.42,-250.5 346.42,-296.5 "/>
<text text-anchor="middle" x="359.42" y="-269.8" font-family="Times,serif" font-size="14.00">Y</text>
</g>
<!-- n2 -->
<g id="node16" class="node">
<title>n2</title>
<ellipse fill="black" stroke="black" cx="426.22" cy="-208.5" rx="1.8" ry="1.8"/>
</g>
<!-- c10&#45;&gt;n2 -->
<g id="edge10" class="edge">
<title>c10:e&#45;&gt;n2:w</title>
<path fill="none" stroke="black" d="M373.92,-273.5C406.5,-273.5 392.09,-221.94 414.39,-210.66"/>
<polygon fill="black" stroke="black" points="415.38,-214.03 424.42,-208.5 413.91,-207.19 415.38,-214.03"/>
</g>
<!-- x2&#45;&gt;c10 -->
<g id="edge3" class="edge">
<title>x2:e&#45;&gt;c10:w</title>
<path fill="none" stroke="black" d="M207.19,-313.86C218.68,-308 222.67,-293.99 234.17,-288.14"/>
<polygon fill="none" stroke="black" points="207.13,-313.87 202.15,-319.09 195.42,-316.5 200.4,-311.28 207.13,-313.87"/>
<polygon fill="none" stroke="black" points="234.21,-288.13 239.19,-282.91 245.92,-285.5 240.94,-290.72 234.21,-288.13"/>
</g>
<!-- x3&#45;&gt;c10 -->
<g id="edge4" class="edge">
<title>x3:e&#45;&gt;c10:w</title>
<path fill="none" stroke="black" d="M207.69,-261.5C217.45,-261.5 223.94,-261.5 233.71,-261.5"/>
<polygon fill="none" stroke="black" points="207.42,-261.5 201.42,-265.5 195.42,-261.5 201.42,-257.5 207.42,-261.5"/>
<polygon fill="none" stroke="black" points="233.92,-261.5 239.92,-257.5 245.92,-261.5 239.92,-265.5 233.92,-261.5"/>
</g>
<!-- x4 -->
<g id="node10" class="node">
<title>x4</title>
<path fill="none" stroke="black" d="M626.02,-172.5C626.02,-172.5 677.02,-172.5 677.02,-172.5 683.02,-172.5 689.02,-178.5 689.02,-184.5 689.02,-184.5 689.02,-196.5 689.02,-196.5 689.02,-202.5 683.02,-208.5 677.02,-208.5 677.02,-208.5 626.02,-208.5 626.02,-208.5 620.02,-208.5 614.02,-202.5 614.02,-196.5 614.02,-196.5 614.02,-184.5 614.02,-184.5 614.02,-178.5 620.02,-172.5 626.02,-172.5"/>
<text text-anchor="middle" x="651.52" y="-186.8" font-family="Times,serif" font-size="14.00">0:0 &#45; 0:0</text>
</g>
<!-- c11&#45;&gt;x4 -->
<g id="edge5" class="edge">
<title>c11:e&#45;&gt;x4:w</title>
<path fill="none" stroke="black" d="M590.25,-192.8C594.32,-192.32 597.75,-191.68 601.82,-191.19"/>
<polygon fill="none" stroke="black" points="590,-192.82 584.24,-197.15 578.02,-193.5 583.78,-189.17 590,-192.82"/>
<polygon fill="none" stroke="black" points="602.04,-191.18 607.8,-186.85 614.02,-190.5 608.26,-194.83 602.04,-191.18"/>
</g>
<!-- x4&#45;&gt;n5 -->
<g id="edge20" class="edge">
<title>x4:e&#45;&gt;n5:w</title>
<path fill="none" stroke="black" d="M689.02,-190.5C705.78,-190.5 705.39,-171.07 715.45,-163.49"/>
<polygon fill="black" stroke="black" points="716.52,-166.82 725.02,-160.5 714.43,-160.14 716.52,-166.82"/>
</g>
<!-- c12 -->
<g id="node11" class="node">
<title>c12</title>
<polygon fill="none" stroke="black" points="231.42,-61.5 231.42,-107.5 388.42,-107.5 388.42,-61.5 231.42,-61.5"/>
<text text-anchor="middle" x="244.92" y="-92.3" font-family="Times,serif" font-size="14.00">A</text>
<polyline fill="none" stroke="black" points="231.42,-84.5 258.42,-84.5 "/>
<text text-anchor="middle" x="244.92" y="-69.3" font-family="Times,serif" font-size="14.00">B</text>
<polyline fill="none" stroke="black" points="258.42,-61.5 258.42,-107.5 "/>
<text text-anchor="middle" x="310.42" y="-88.3" font-family="Times,serif" font-size="14.00">$142</text>
<text text-anchor="middle" x="310.42" y="-73.3" font-family="Times,serif" font-size="14.00">$_ANDNOT_</text>
<polyline fill="none" stroke="black" points="362.42,-61.5 362.42,-107.5 "/>
<text text-anchor="middle" x="375.42" y="-80.8" font-family="Times,serif" font-size="14.00">Y</text>
</g>
<!-- c13 -->
<g id="node14" class="node">
<title>c13</title>
<polygon fill="none" stroke="black" points="464.02,-105.5 464.02,-151.5 578.02,-151.5 578.02,-105.5 464.02,-105.5"/>
<text text-anchor="middle" x="477.52" y="-136.3" font-family="Times,serif" font-size="14.00">A</text>
<polyline fill="none" stroke="black" points="464.02,-128.5 491.02,-128.5 "/>
<text text-anchor="middle" x="477.52" y="-113.3" font-family="Times,serif" font-size="14.00">B</text>
<polyline fill="none" stroke="black" points="491.02,-105.5 491.02,-151.5 "/>
<text text-anchor="middle" x="521.52" y="-132.3" font-family="Times,serif" font-size="14.00">$143</text>
<text text-anchor="middle" x="521.52" y="-117.3" font-family="Times,serif" font-size="14.00">$_OR_</text>
<polyline fill="none" stroke="black" points="552.02,-105.5 552.02,-151.5 "/>
<text text-anchor="middle" x="565.02" y="-124.8" font-family="Times,serif" font-size="14.00">Y</text>
</g>
<!-- c12&#45;&gt;c13 -->
<g id="edge13" class="edge">
<title>c12:e&#45;&gt;c13:w</title>
<path fill="none" stroke="black" d="M388.42,-84.5C421.2,-84.5 426.65,-110.33 453.88,-115.58"/>
<polygon fill="black" stroke="black" points="453.74,-119.08 464.02,-116.5 454.38,-112.11 453.74,-119.08"/>
</g>
<!-- x5&#45;&gt;c12 -->
<g id="edge6" class="edge">
<title>x5:e&#45;&gt;c12:w</title>
<path fill="none" stroke="black" d="M207.64,-96.5C211.71,-96.5 215.15,-96.5 219.23,-96.5"/>
<polygon fill="none" stroke="black" points="207.42,-96.5 201.42,-100.5 195.42,-96.5 201.42,-92.5 207.42,-96.5"/>
<polygon fill="none" stroke="black" points="219.42,-96.5 225.42,-92.5 231.42,-96.5 225.42,-100.5 219.42,-96.5"/>
</g>
<!-- x6&#45;&gt;c12 -->
<g id="edge7" class="edge">
<title>x6:e&#45;&gt;c12:w</title>
<path fill="none" stroke="black" d="M206.73,-46.07C212.37,-51.87 214.35,-61.81 219.9,-67.7"/>
<polygon fill="none" stroke="black" points="206.54,-46 199.48,-47.46 195.42,-41.5 202.48,-40.04 206.54,-46"/>
<polygon fill="none" stroke="black" points="220.34,-67.89 227.42,-66.5 231.42,-72.5 224.34,-73.89 220.34,-67.89"/>
</g>
<!-- x7 -->
<g id="node15" class="node">
<title>x7</title>
<path fill="none" stroke="black" d="M626.02,-115.5C626.02,-115.5 677.02,-115.5 677.02,-115.5 683.02,-115.5 689.02,-121.5 689.02,-127.5 689.02,-127.5 689.02,-139.5 689.02,-139.5 689.02,-145.5 683.02,-151.5 677.02,-151.5 677.02,-151.5 626.02,-151.5 626.02,-151.5 620.02,-151.5 614.02,-145.5 614.02,-139.5 614.02,-139.5 614.02,-127.5 614.02,-127.5 614.02,-121.5 620.02,-115.5 626.02,-115.5"/>
<text text-anchor="middle" x="651.52" y="-129.8" font-family="Times,serif" font-size="14.00">0:0 &#45; 1:1</text>
</g>
<!-- c13&#45;&gt;x7 -->
<g id="edge8" class="edge">
<title>c13:e&#45;&gt;x7:w</title>
<path fill="none" stroke="black" d="M590.02,-129.61C594.27,-130.44 597.78,-131.57 602.04,-132.39"/>
<polygon fill="none" stroke="black" points="589.97,-129.61 583.63,-133.04 578.02,-128.5 584.36,-125.07 589.97,-129.61"/>
<polygon fill="none" stroke="black" points="602.07,-132.4 608.41,-128.97 614.02,-133.5 607.68,-136.93 602.07,-132.4"/>
</g>
<!-- x7&#45;&gt;n5 -->
<g id="edge21" class="edge">
<title>x7:e&#45;&gt;n5:w</title>
<path fill="none" stroke="black" d="M689.02,-133.5C704.96,-133.5 705.65,-150.65 715.4,-157.61"/>
<polygon fill="black" stroke="black" points="714.43,-160.98 725.02,-160.5 716.45,-154.27 714.43,-160.98"/>
</g>
<!-- n2&#45;&gt;c11 -->
<g id="edge11" class="edge">
<title>n2:e&#45;&gt;c11:w</title>
<path fill="none" stroke="black" d="M428.02,-208.5C440.06,-208.5 445.26,-206.81 453.88,-205.97"/>
<polygon fill="black" stroke="black" points="454.19,-209.46 464.02,-205.5 453.87,-202.47 454.19,-209.46"/>
</g>
<!-- n2&#45;&gt;c13 -->
<g id="edge12" class="edge">
<title>n2:e&#45;&gt;c13:w</title>
<path fill="none" stroke="black" d="M428.02,-208.5C457.94,-208.5 436.88,-156.44 454.06,-143.42"/>
<polygon fill="black" stroke="black" points="455.41,-146.67 464.02,-140.5 453.44,-139.96 455.41,-146.67"/>
</g>
</g>
</svg>
