<svg xmlns="http://www.w3.org/2000/svg" xmlns:xlink="http://www.w3.org/1999/xlink" xmlns:s="https://github.com/nturley/netlistsvg" width="380" height="169">
  <style>svg {
    stroke:#000;
    fill:none;
  }
  text {
    fill:#000;
    stroke:none;
    font-size:10px;
    font-weight: bold;
    font-family: "Courier New", monospace;
  }
  .nodelabel {
    text-anchor: middle;
  }
  .inputPortLabel {
    text-anchor: end;
  }
  .splitjoinBody {
    fill:#000;
  }</style>
  <g s:type="nand" transform="translate(136,72)" s:width="30" s:height="25" id="cell_$abc$138$auto$blifparse.cc:386:parse_blif$139">
    <s:alias val="$nand"/>
    <s:alias val="$logic_nand"/>
    <s:alias val="$_NAND_"/>
    <s:alias val="$_ANDNOT_"/>
    <path d="M0,0 L0,25 L15,25 A15 12.5 0 0 0 15,0 Z" class="cell_$abc$138$auto$blifparse.cc:386:parse_blif$139"/>
    <circle cx="34" cy="12.5" r="3" class="cell_$abc$138$auto$blifparse.cc:386:parse_blif$139"/>
    <g s:x="0" s:y="5" s:pid="A"/>
    <g s:x="0" s:y="20" s:pid="B"/>
    <g s:x="36" s:y="12.5" s:pid="Y"/>
  </g>
  <g s:type="and" transform="translate(138,12)" s:width="30" s:height="25" id="cell_$abc$138$auto$blifparse.cc:386:parse_blif$140">
    <s:alias val="$and"/>
    <s:alias val="$logic_and"/>
    <s:alias val="$_AND_"/>
    <path d="M0,0 L0,25 L15,25 A15 12.5 0 0 0 15,0 Z" class="cell_$abc$138$auto$blifparse.cc:386:parse_blif$140"/>
    <g s:x="0" s:y="5" s:pid="A"/>
    <g s:x="0" s:y="20" s:pid="B"/>
    <g s:x="30" s:y="12.5" s:pid="Y"/>
  </g>
  <g s:type="or" transform="translate(207,19.5)" s:width="30" s:height="25" id="cell_$abc$138$auto$blifparse.cc:386:parse_blif$141">
    <s:alias val="$or"/>
    <s:alias val="$logic_or"/>
    <s:alias val="$_OR_"/>
    <path d="M0,25 L0,25 L15,25 A15 12.5 0 0 0 15,0 L0,0" class="cell_$abc$138$auto$blifparse.cc:386:parse_blif$141"/>
    <path d="M0,0 A30 25 0 0 1 0,25" class="cell_$abc$138$auto$blifparse.cc:386:parse_blif$141"/>
    <g s:x="3" s:y="5" s:pid="A"/>
    <g s:x="3" s:y="20" s:pid="B"/>
    <g s:x="30" s:y="12.5" s:pid="Y"/>
  </g>
  <g s:type="nand" transform="translate(136,132)" s:width="30" s:height="25" id="cell_$abc$138$auto$blifparse.cc:386:parse_blif$142">
    <s:alias val="$nand"/>
    <s:alias val="$logic_nand"/>
    <s:alias val="$_NAND_"/>
    <s:alias val="$_ANDNOT_"/>
    <path d="M0,0 L0,25 L15,25 A15 12.5 0 0 0 15,0 Z" class="cell_$abc$138$auto$blifparse.cc:386:parse_blif$142"/>
    <circle cx="34" cy="12.5" r="3" class="cell_$abc$138$auto$blifparse.cc:386:parse_blif$142"/>
    <g s:x="0" s:y="5" s:pid="A"/>
    <g s:x="0" s:y="20" s:pid="B"/>
    <g s:x="36" s:y="12.5" s:pid="Y"/>
  </g>
  <g s:type="or" transform="translate(207,124.5)" s:width="30" s:height="25" id="cell_$abc$138$auto$blifparse.cc:386:parse_blif$143">
    <s:alias val="$or"/>
    <s:alias val="$logic_or"/>
    <s:alias val="$_OR_"/>
    <path d="M0,25 L0,25 L15,25 A15 12.5 0 0 0 15,0 L0,0" class="cell_$abc$138$auto$blifparse.cc:386:parse_blif$143"/>
    <path d="M0,0 A30 25 0 0 1 0,25" class="cell_$abc$138$auto$blifparse.cc:386:parse_blif$143"/>
    <g s:x="3" s:y="5" s:pid="A"/>
    <g s:x="3" s:y="20" s:pid="B"/>
    <g s:x="30" s:y="12.5" s:pid="Y"/>
  </g>
  <g s:type="inputExt" transform="translate(12,72)" s:width="30" s:height="20" id="cell_trit_in">
    <text x="15" y="-4" class="nodelabel cell_trit_in" s:attribute="ref">trit_in</text>
    <s:alias val="$_inputExt_"/>
    <path d="M0,0 L0,20 L15,20 L30,10 L15,0 Z" class="cell_trit_in"/>
    <g s:x="28" s:y="10" s:pid="Y"/>
  </g>
  <g s:type="outputExt" transform="translate(320,32)" s:width="30" s:height="20" id="cell_trit_out">
    <text x="15" y="-4" class="nodelabel cell_trit_out" s:attribute="ref">trit_out</text>
    <s:alias val="$_outputExt_"/>
    <path d="M30,0 L30,20 L15,20 L0,10 L15,0 Z" class="cell_trit_out"/>
    <g s:x="0" s:y="10" s:pid="A"/>
  </g>
  <g s:type="join" transform="translate(279,21.5)" s:width="4" s:height="40" id="cell_$join$,4,5,">
    <rect width="5" height="40" class="splitjoinBody" s:generic="body"/>
    <s:alias val="$_join_"/>
    <g s:x="5" s:y="20" s:pid="out"/>
    <g transform="translate(0,10)" s:x="0" s:y="10" s:pid="in0">
      <text x="-3" y="-4" class="inputPortLabel">0</text>
    </g>
    <g transform="translate(0,30)" s:x="0" s:y="10" s:pid="in0">
      <text x="-3" y="-4" class="inputPortLabel">1</text>
    </g>
  </g>
  <g s:type="split" transform="translate(89,61.5)" s:width="5" s:height="40" id="cell_$split$,2,3,">
    <rect width="5" height="40" class="splitjoinBody" s:generic="body"/>
    <s:alias val="$_split_"/>
    <g s:x="0" s:y="20" s:pid="in"/>
    <g transform="translate(4,10)" s:x="4" s:y="10" s:pid="out0">
      <text x="5" y="-4">0</text>
    </g>
    <g transform="translate(4,30)" s:x="4" s:y="10" s:pid="out0">
      <text x="5" y="-4">1</text>
    </g>
  </g>
  <line x1="94" x2="111" y1="72" y2="72" class="net_2"/>
  <line x1="111" x2="111" y1="72" y2="77" class="net_2"/>
  <circle cx="111" cy="72" r="2" style="fill:#000" class="net_2"/>
  <circle cx="111" cy="77" r="2" style="fill:#000" class="net_2"/>
  <line x1="111" x2="136" y1="77" y2="77" class="net_2"/>
  <line x1="94" x2="111" y1="72" y2="72" class="net_2"/>
  <line x1="111" x2="111" y1="72" y2="17" class="net_2"/>
  <line x1="111" x2="138" y1="17" y2="17" class="net_2"/>
  <line x1="94" x2="111" y1="72" y2="72" class="net_2"/>
  <line x1="111" x2="111" y1="72" y2="152" class="net_2"/>
  <line x1="111" x2="136" y1="152" y2="152" class="net_2"/>
  <line x1="94" x2="136" y1="92" y2="92" class="net_3"/>
  <line x1="94" x2="121" y1="92" y2="92" class="net_3"/>
  <line x1="121" x2="121" y1="92" y2="32" class="net_3"/>
  <circle cx="121" cy="92" r="2" style="fill:#000" class="net_3"/>
  <line x1="121" x2="138" y1="32" y2="32" class="net_3"/>
  <line x1="94" x2="121" y1="92" y2="92" class="net_3"/>
  <line x1="121" x2="121" y1="92" y2="137" class="net_3"/>
  <line x1="121" x2="136" y1="137" y2="137" class="net_3"/>
  <line x1="168" x2="210" y1="24.5" y2="24.5" class="net_7"/>
  <line x1="168" x2="192" y1="24.5" y2="24.5" class="net_7"/>
  <line x1="192" x2="192" y1="24.5" y2="129.5" class="net_7"/>
  <circle cx="192" cy="24.5" r="2" style="fill:#000" class="net_7"/>
  <line x1="192" x2="210" y1="129.5" y2="129.5" class="net_7"/>
  <line x1="172" x2="182" y1="84.5" y2="84.5" class="net_6"/>
  <line x1="182" x2="182" y1="84.5" y2="39.5" class="net_6"/>
  <line x1="182" x2="210" y1="39.5" y2="39.5" class="net_6"/>
  <line x1="172" x2="210" y1="144.5" y2="144.5" class="net_8"/>
  <line x1="285" x2="320" y1="42" y2="42" class="net_4,5"/>
  <line x1="237" x2="279" y1="32" y2="32" class="net_4"/>
  <line x1="237" x2="247" y1="137" y2="137" class="net_5"/>
  <line x1="247" x2="247" y1="137" y2="52" class="net_5"/>
  <line x1="247" x2="279" y1="52" y2="52" class="net_5"/>
  <line x1="40" x2="89" y1="82" y2="82" class="net_2,3"/>
</svg>
