<?xml version="1.0" encoding="UTF-8" standalone="no"?>
<!DOCTYPE svg PUBLIC "-//W3C//DTD SVG 1.1//EN"
 "http://www.w3.org/Graphics/SVG/1.1/DTD/svg11.dtd">
<!-- Generated by graphviz version 2.43.0 (0)
 -->
<!-- Title: dut Pages: 1 -->
<svg width="642pt" height="233pt"
 viewBox="0.00 0.00 641.91 233.00" xmlns="http://www.w3.org/2000/svg" xmlns:xlink="http://www.w3.org/1999/xlink">
<g id="graph0" class="graph" transform="scale(1 1) rotate(0) translate(4 229)">
<title>dut</title>
<polygon fill="white" stroke="transparent" points="-4,4 -4,-229 637.91,-229 637.91,4 -4,4"/>
<text text-anchor="middle" x="316.95" y="-7.8" font-family="Times,serif" font-size="14.00">dut</text>
<!-- n1 -->
<g id="node1" class="node">
<title>n1</title>
<polygon fill="none" stroke="black" points="84.63,-116.04 84.63,-130.96 59.78,-141.5 24.64,-141.5 -0.21,-130.96 -0.21,-116.04 24.64,-105.5 59.78,-105.5 84.63,-116.04"/>
<text text-anchor="middle" x="42.21" y="-119.8" font-family="Times,serif" font-size="14.00">trit_in</text>
</g>
<!-- x0 -->
<g id="node4" class="node">
<title>x0</title>
<path fill="none" stroke="black" d="M132.42,-188.5C132.42,-188.5 183.42,-188.5 183.42,-188.5 189.42,-188.5 195.42,-194.5 195.42,-200.5 195.42,-200.5 195.42,-212.5 195.42,-212.5 195.42,-218.5 189.42,-224.5 183.42,-224.5 183.42,-224.5 132.42,-224.5 132.42,-224.5 126.42,-224.5 120.42,-218.5 120.42,-212.5 120.42,-212.5 120.42,-200.5 120.42,-200.5 120.42,-194.5 126.42,-188.5 132.42,-188.5"/>
<text text-anchor="middle" x="157.92" y="-202.8" font-family="Times,serif" font-size="14.00">0:0 &#45; 0:0</text>
</g>
<!-- n1&#45;&gt;x0 -->
<g id="edge7" class="edge">
<title>n1:e&#45;&gt;x0:w</title>
<path fill="none" stroke="black" d="M84.42,-123.5C120.54,-123.5 88.36,-190.5 110.61,-204.11"/>
<polygon fill="black" stroke="black" points="109.87,-207.53 120.42,-206.5 111.53,-200.73 109.87,-207.53"/>
</g>
<!-- x1 -->
<g id="node5" class="node">
<title>x1</title>
<path fill="none" stroke="black" d="M132.42,-133.5C132.42,-133.5 183.42,-133.5 183.42,-133.5 189.42,-133.5 195.42,-139.5 195.42,-145.5 195.42,-145.5 195.42,-157.5 195.42,-157.5 195.42,-163.5 189.42,-169.5 183.42,-169.5 183.42,-169.5 132.42,-169.5 132.42,-169.5 126.42,-169.5 120.42,-163.5 120.42,-157.5 120.42,-157.5 120.42,-145.5 120.42,-145.5 120.42,-139.5 126.42,-133.5 132.42,-133.5"/>
<text text-anchor="middle" x="157.92" y="-147.8" font-family="Times,serif" font-size="14.00">1:1 &#45; 0:0</text>
</g>
<!-- n1&#45;&gt;x1 -->
<g id="edge8" class="edge">
<title>n1:e&#45;&gt;x1:w</title>
<path fill="none" stroke="black" d="M84.42,-123.5C100.57,-123.5 100.97,-141.28 110.72,-148.5"/>
<polygon fill="black" stroke="black" points="109.83,-151.89 120.42,-151.5 111.9,-145.2 109.83,-151.89"/>
</g>
<!-- x3 -->
<g id="node8" class="node">
<title>x3</title>
<path fill="none" stroke="black" d="M132.42,-78.5C132.42,-78.5 183.42,-78.5 183.42,-78.5 189.42,-78.5 195.42,-84.5 195.42,-90.5 195.42,-90.5 195.42,-102.5 195.42,-102.5 195.42,-108.5 189.42,-114.5 183.42,-114.5 183.42,-114.5 132.42,-114.5 132.42,-114.5 126.42,-114.5 120.42,-108.5 120.42,-102.5 120.42,-102.5 120.42,-90.5 120.42,-90.5 120.42,-84.5 126.42,-78.5 132.42,-78.5"/>
<text text-anchor="middle" x="157.92" y="-92.8" font-family="Times,serif" font-size="14.00">0:0 &#45; 0:0</text>
</g>
<!-- n1&#45;&gt;x3 -->
<g id="edge9" class="edge">
<title>n1:e&#45;&gt;x3:w</title>
<path fill="none" stroke="black" d="M84.42,-123.5C100.36,-123.5 101.05,-106.35 110.8,-99.39"/>
<polygon fill="black" stroke="black" points="111.85,-102.73 120.42,-96.5 109.83,-96.02 111.85,-102.73"/>
</g>
<!-- x4 -->
<g id="node9" class="node">
<title>x4</title>
<path fill="none" stroke="black" d="M132.42,-23.5C132.42,-23.5 183.42,-23.5 183.42,-23.5 189.42,-23.5 195.42,-29.5 195.42,-35.5 195.42,-35.5 195.42,-47.5 195.42,-47.5 195.42,-53.5 189.42,-59.5 183.42,-59.5 183.42,-59.5 132.42,-59.5 132.42,-59.5 126.42,-59.5 120.42,-53.5 120.42,-47.5 120.42,-47.5 120.42,-35.5 120.42,-35.5 120.42,-29.5 126.42,-23.5 132.42,-23.5"/>
<text text-anchor="middle" x="157.92" y="-37.8" font-family="Times,serif" font-size="14.00">1:1 &#45; 0:0</text>
</g>
<!-- n1&#45;&gt;x4 -->
<g id="edge10" class="edge">
<title>n1:e&#45;&gt;x4:w</title>
<path fill="none" stroke="black" d="M84.42,-123.5C120.18,-123.5 88.61,-57.31 110.7,-43.87"/>
<polygon fill="black" stroke="black" points="111.53,-47.27 120.42,-41.5 109.88,-40.46 111.53,-47.27"/>
</g>
<!-- n2 -->
<g id="node2" class="node">
<title>n2</title>
<polygon fill="none" stroke="black" points="634.15,-116.04 634.15,-130.96 605.16,-141.5 564.16,-141.5 535.17,-130.96 535.17,-116.04 564.16,-105.5 605.16,-105.5 634.15,-116.04"/>
<text text-anchor="middle" x="584.66" y="-119.8" font-family="Times,serif" font-size="14.00">trit_out</text>
</g>
<!-- c6 -->
<g id="node3" class="node">
<title>c6</title>
<polygon fill="none" stroke="black" points="231.42,-140.5 231.42,-186.5 388.42,-186.5 388.42,-140.5 231.42,-140.5"/>
<text text-anchor="middle" x="244.92" y="-171.3" font-family="Times,serif" font-size="14.00">A</text>
<polyline fill="none" stroke="black" points="231.42,-163.5 258.42,-163.5 "/>
<text text-anchor="middle" x="244.92" y="-148.3" font-family="Times,serif" font-size="14.00">B</text>
<polyline fill="none" stroke="black" points="258.42,-140.5 258.42,-186.5 "/>
<text text-anchor="middle" x="310.42" y="-167.3" font-family="Times,serif" font-size="14.00">$145</text>
<text text-anchor="middle" x="310.42" y="-152.3" font-family="Times,serif" font-size="14.00">$_ANDNOT_</text>
<polyline fill="none" stroke="black" points="362.42,-140.5 362.42,-186.5 "/>
<text text-anchor="middle" x="375.42" y="-159.8" font-family="Times,serif" font-size="14.00">Y</text>
</g>
<!-- x2 -->
<g id="node6" class="node">
<title>x2</title>
<path fill="none" stroke="black" d="M436.42,-139.5C436.42,-139.5 487.42,-139.5 487.42,-139.5 493.42,-139.5 499.42,-145.5 499.42,-151.5 499.42,-151.5 499.42,-163.5 499.42,-163.5 499.42,-169.5 493.42,-175.5 487.42,-175.5 487.42,-175.5 436.42,-175.5 436.42,-175.5 430.42,-175.5 424.42,-169.5 424.42,-163.5 424.42,-163.5 424.42,-151.5 424.42,-151.5 424.42,-145.5 430.42,-139.5 436.42,-139.5"/>
<text text-anchor="middle" x="461.92" y="-153.8" font-family="Times,serif" font-size="14.00">0:0 &#45; 0:0</text>
</g>
<!-- c6&#45;&gt;x2 -->
<g id="edge3" class="edge">
<title>c6:e&#45;&gt;x2:w</title>
<path fill="none" stroke="black" d="M400.44,-162.17C404.68,-161.17 408.17,-159.82 412.42,-158.83"/>
<polygon fill="none" stroke="black" points="400.35,-162.18 394.82,-166.81 388.42,-163.5 393.94,-158.86 400.35,-162.18"/>
<polygon fill="none" stroke="black" points="412.49,-158.82 418.02,-154.18 424.42,-157.5 418.9,-162.14 412.49,-158.82"/>
</g>
<!-- x0&#45;&gt;c6 -->
<g id="edge1" class="edge">
<title>x0:e&#45;&gt;c6:w</title>
<path fill="none" stroke="black" d="M206.73,-201.93C212.37,-196.13 214.35,-186.19 219.9,-180.3"/>
<polygon fill="none" stroke="black" points="206.54,-202 202.48,-207.96 195.42,-206.5 199.48,-200.54 206.54,-202"/>
<polygon fill="none" stroke="black" points="220.34,-180.11 224.34,-174.11 231.42,-175.5 227.42,-181.5 220.34,-180.11"/>
</g>
<!-- x1&#45;&gt;c6 -->
<g id="edge2" class="edge">
<title>x1:e&#45;&gt;c6:w</title>
<path fill="none" stroke="black" d="M207.64,-151.5C211.71,-151.5 215.15,-151.5 219.23,-151.5"/>
<polygon fill="none" stroke="black" points="207.42,-151.5 201.42,-155.5 195.42,-151.5 201.42,-147.5 207.42,-151.5"/>
<polygon fill="none" stroke="black" points="219.42,-151.5 225.42,-147.5 231.42,-151.5 225.42,-155.5 219.42,-151.5"/>
</g>
<!-- x2&#45;&gt;n2 -->
<g id="edge11" class="edge">
<title>x2:e&#45;&gt;n2:w</title>
<path fill="none" stroke="black" d="M499.42,-157.5C517.3,-157.5 515.36,-135.05 525.81,-126.64"/>
<polygon fill="black" stroke="black" points="527,-129.93 535.42,-123.5 524.83,-123.28 527,-129.93"/>
</g>
<!-- c7 -->
<g id="node7" class="node">
<title>c7</title>
<polygon fill="none" stroke="black" points="246.92,-61.5 246.92,-107.5 372.92,-107.5 372.92,-61.5 246.92,-61.5"/>
<text text-anchor="middle" x="260.42" y="-92.3" font-family="Times,serif" font-size="14.00">A</text>
<polyline fill="none" stroke="black" points="246.92,-84.5 273.92,-84.5 "/>
<text text-anchor="middle" x="260.42" y="-69.3" font-family="Times,serif" font-size="14.00">B</text>
<polyline fill="none" stroke="black" points="273.92,-61.5 273.92,-107.5 "/>
<text text-anchor="middle" x="310.42" y="-88.3" font-family="Times,serif" font-size="14.00">$146</text>
<text text-anchor="middle" x="310.42" y="-73.3" font-family="Times,serif" font-size="14.00">$_NOR_</text>
<polyline fill="none" stroke="black" points="346.92,-61.5 346.92,-107.5 "/>
<text text-anchor="middle" x="359.92" y="-80.8" font-family="Times,serif" font-size="14.00">Y</text>
</g>
<!-- x5 -->
<g id="node10" class="node">
<title>x5</title>
<path fill="none" stroke="black" d="M436.42,-78.5C436.42,-78.5 487.42,-78.5 487.42,-78.5 493.42,-78.5 499.42,-84.5 499.42,-90.5 499.42,-90.5 499.42,-102.5 499.42,-102.5 499.42,-108.5 493.42,-114.5 487.42,-114.5 487.42,-114.5 436.42,-114.5 436.42,-114.5 430.42,-114.5 424.42,-108.5 424.42,-102.5 424.42,-102.5 424.42,-90.5 424.42,-90.5 424.42,-84.5 430.42,-78.5 436.42,-78.5"/>
<text text-anchor="middle" x="461.92" y="-92.8" font-family="Times,serif" font-size="14.00">0:0 &#45; 1:1</text>
</g>
<!-- c7&#45;&gt;x5 -->
<g id="edge6" class="edge">
<title>c7:e&#45;&gt;x5:w</title>
<path fill="none" stroke="black" d="M385.97,-85.78C396.04,-88.08 402.21,-92.87 412.25,-95.19"/>
<polygon fill="none" stroke="black" points="385.85,-85.77 379.46,-89.11 373.92,-84.5 380.31,-81.16 385.85,-85.77"/>
<polygon fill="none" stroke="black" points="412.49,-95.21 418.88,-91.88 424.42,-96.5 418.03,-99.83 412.49,-95.21"/>
</g>
<!-- x3&#45;&gt;c7 -->
<g id="edge4" class="edge">
<title>x3:e&#45;&gt;c7:w</title>
<path fill="none" stroke="black" d="M207.69,-96.5C217.45,-96.5 223.94,-96.5 233.71,-96.5"/>
<polygon fill="none" stroke="black" points="207.42,-96.5 201.42,-100.5 195.42,-96.5 201.42,-92.5 207.42,-96.5"/>
<polygon fill="none" stroke="black" points="233.92,-96.5 239.92,-92.5 245.92,-96.5 239.92,-100.5 233.92,-96.5"/>
</g>
<!-- x4&#45;&gt;c7 -->
<g id="edge5" class="edge">
<title>x4:e&#45;&gt;c7:w</title>
<path fill="none" stroke="black" d="M207.19,-44.14C218.68,-50 222.67,-64.01 234.17,-69.86"/>
<polygon fill="none" stroke="black" points="207.13,-44.13 200.4,-46.72 195.42,-41.5 202.15,-38.91 207.13,-44.13"/>
<polygon fill="none" stroke="black" points="234.21,-69.87 240.94,-67.28 245.92,-72.5 239.19,-75.09 234.21,-69.87"/>
</g>
<!-- x5&#45;&gt;n2 -->
<g id="edge12" class="edge">
<title>x5:e&#45;&gt;n2:w</title>
<path fill="none" stroke="black" d="M499.42,-96.5C515.36,-96.5 516.05,-113.65 525.8,-120.61"/>
<polygon fill="black" stroke="black" points="524.83,-123.98 535.42,-123.5 526.85,-117.27 524.83,-123.98"/>
</g>
</g>
</svg>
